<svg xmlns="http://www.w3.org/2000/svg" viewBox="0 0 500 500"><g id="freepik--background-simple--inject-87"><path d="M405,183.32s-24.44-47.51-78.41-54.54S235,156.05,195.23,173.64c-20.8,9.22-44.55,5.64-66.63,10.1C58,198,31.4,287.34,60.81,338.15c25.46,44,70.27,66.85,138.5,72.13S315.4,421.72,376.5,378.61,433.53,245.78,405,183.32Z" style="fill:#FBA4A4"></path><path d="M405,183.32s-24.44-47.51-78.41-54.54S235,156.05,195.23,173.64c-20.8,9.22-44.55,5.64-66.63,10.1C58,198,31.4,287.34,60.81,338.15c25.46,44,70.27,66.85,138.5,72.13S315.4,421.72,376.5,378.61,433.53,245.78,405,183.32Z" style="fill:#fff;opacity:0.8"></path></g><g id="freepik--Floor--inject-87"><ellipse cx="232.36" cy="430.66" rx="150.36" ry="9.85" style="fill:#FBA4A4"></ellipse><ellipse cx="232.36" cy="430.66" rx="150.36" ry="9.85" style="fill:#fff;opacity:0.5"></ellipse></g><g id="freepik--Plants--inject-87"><path d="M336.82,297.54c-2.81,6.93-5.69,1.36-5.23-27.68.21-13.6,1.17-41.41,16.22-35.29,14.46,5.88-4.6,47-4.6,47Zm20.66,4.12s31.37-32.69,19.61-43C364.84,248,354.91,274,350.29,286.82c-9.86,27.31-9,33.51-4.05,27.87ZM364.1,331s28.72-20.45,21.21-30c-7.81-9.93-19.18,8.49-24.56,17.61-11.5,19.45-11.7,24.32-7.13,20.72Zm7.77,29.25s28.73-20.45,21.22-30c-7.82-9.93-19.18,8.49-24.57,17.61-11.49,19.45-11.7,24.33-7.13,20.73Zm-50.16-58.81s-40.19-20.92-46.72-6.75c-6.81,14.75,20.92,17,34.51,17.82,29,1.79,34.67-.83,27.88-3.95Zm5.66,23s-43.54-12.51-47.13,2.68c-3.74,15.81,23.88,12.49,37.36,10.61,28.76-4,33.82-7.71,26.55-9.42Zm10,25.11s-37.11-9.57-39.8,3.36c-2.79,13.45,20.49,10,31.85,8.1,24.22-4.06,28.42-7.3,22.23-8.58Zm5.81,20.73s-35.89-13.46-39.93-.89c-4.2,13.08,19.31,12.12,30.8,11.44,24.52-1.46,29-4.25,23-6.17Zm-24-105s-16.38-50.92-35-41.67c-19.36,9.62,3,32.59,14.2,43.58,23.87,23.45,31.25,25.1,28.11,16.91Z" style="fill:#FBA4A4"></path><path d="M336.82,297.54c-2.81,6.93-5.69,1.36-5.23-27.68.21-13.6,1.17-41.41,16.22-35.29,14.46,5.88-4.6,47-4.6,47Zm20.66,4.12s31.37-32.69,19.61-43C364.84,248,354.91,274,350.29,286.82c-9.86,27.31-9,33.51-4.05,27.87ZM364.1,331s28.72-20.45,21.21-30c-7.81-9.93-19.18,8.49-24.56,17.61-11.5,19.45-11.7,24.32-7.13,20.72Zm7.77,29.25s28.73-20.45,21.22-30c-7.82-9.93-19.18,8.49-24.57,17.61-11.49,19.45-11.7,24.33-7.13,20.73Zm-50.16-58.81s-40.19-20.92-46.72-6.75c-6.81,14.75,20.92,17,34.51,17.82,29,1.79,34.67-.83,27.88-3.95Zm5.66,23s-43.54-12.51-47.13,2.68c-3.74,15.81,23.88,12.49,37.36,10.61,28.76-4,33.82-7.71,26.55-9.42Zm10,25.11s-37.11-9.57-39.8,3.36c-2.79,13.45,20.49,10,31.85,8.1,24.22-4.06,28.42-7.3,22.23-8.58Zm5.81,20.73s-35.89-13.46-39.93-.89c-4.2,13.08,19.31,12.12,30.8,11.44,24.52-1.46,29-4.25,23-6.17Zm-24-105s-16.38-50.92-35-41.67c-19.36,9.62,3,32.59,14.2,43.58,23.87,23.45,31.25,25.1,28.11,16.91Z" style="fill:#fff;opacity:0.65"></path><path d="M291.92,241.77s41.15,50.2,51,75.34c11.32,28.87,18.84,62.13,20.37,89.07" style="fill:none;stroke:#ccc;stroke-linecap:round;stroke-linejoin:round;stroke-width:1.25197px"></path><line x1="334.72" y1="300.71" x2="340.45" y2="252.84" style="fill:none;stroke:#ccc;stroke-linecap:round;stroke-linejoin:round;stroke-width:1.25197px"></line><line x1="342.91" y1="317.11" x2="363.61" y2="276.87" style="fill:none;stroke:#ccc;stroke-linecap:round;stroke-linejoin:round;stroke-width:1.25197px"></line><line x1="339.89" y1="311.14" x2="296.54" y2="302.31" style="fill:none;stroke:#ccc;stroke-linecap:round;stroke-linejoin:round;stroke-width:1.25197px"></line><line x1="351.06" y1="339.94" x2="376.55" y2="310.9" style="fill:none;stroke:#ccc;stroke-linecap:round;stroke-linejoin:round;stroke-width:1.25197px"></line><line x1="347.5" y1="330.37" x2="314.77" y2="330.09" style="fill:none;stroke:#ccc;stroke-linecap:round;stroke-linejoin:round;stroke-width:1.25197px"></line><line x1="353.8" y1="354.13" x2="328.7" y2="355.13" style="fill:none;stroke:#ccc;stroke-linecap:round;stroke-linejoin:round;stroke-width:1.25197px"></line><line x1="358.96" y1="369.3" x2="372.4" y2="351.38" style="fill:none;stroke:#ccc;stroke-linecap:round;stroke-linejoin:round;stroke-width:1.25197px"></line><line x1="359.94" y1="375.96" x2="330.58" y2="374.5" style="fill:none;stroke:#ccc;stroke-linecap:round;stroke-linejoin:round;stroke-width:1.25197px"></line><path d="M416,337.19c-5.07,1.91-3.52-2.35,12.15-16.38,7.34-6.58,22.6-19.73,26.74-8.72,4,10.58-27.25,20.65-27.25,20.65Zm8,13s32.81.62,32.48-10.68c-.34-11.76-19.05-4.27-28.13-.44-19.37,8.18-22.22,11.71-16.81,11.55Zm-12.36,17.94s25,5.23,26.38-3.46c1.45-9-13.94-6-21.44-4.41-16,3.44-18.69,5.73-14.53,6.39Zm-11.74,18.51s25,5.23,26.39-3.46c1.44-9-14-6-21.44-4.41-16,3.45-18.69,5.74-14.53,6.4Zm6.63-55.59s-8.62-31.66-19.38-28.17c-11.19,3.64,1.25,19.48,7.49,27.12,13.29,16.29,17.48,18,15.81,12.89ZM397,345.4s-14.75-29.31-24.6-23.75c-10.24,5.78,5.1,18.84,12.73,25.09,16.26,13.32,20.72,14.2,18.05,9.49Zm-8.46,17.65s-13.15-24.45-21.35-19.52c-8.53,5.13,4.75,15.81,11.34,20.92C392.6,375.34,396.39,376,394,372.06Zm-8.17,13.28s-10.48-25.71-19.15-21.68c-9,4.19,3,16.23,9,22C383.1,389,386.8,390,384.87,385.87Zm44-64.4s19-33.74,5-39.09c-14.63-5.56-15.85,17.62-16.2,29-.75,24.22,2,29,4.82,23.26Z" style="fill:#FBA4A4"></path><path d="M416,337.19c-5.07,1.91-3.52-2.35,12.15-16.38,7.34-6.58,22.6-19.73,26.74-8.72,4,10.58-27.25,20.65-27.25,20.65Zm8,13s32.81.62,32.48-10.68c-.34-11.76-19.05-4.27-28.13-.44-19.37,8.18-22.22,11.71-16.81,11.55Zm-12.36,17.94s25,5.23,26.38-3.46c1.45-9-13.94-6-21.44-4.41-16,3.44-18.69,5.73-14.53,6.39Zm-11.74,18.51s25,5.23,26.39-3.46c1.44-9-14-6-21.44-4.41-16,3.45-18.69,5.74-14.53,6.4Zm6.63-55.59s-8.62-31.66-19.38-28.17c-11.19,3.64,1.25,19.48,7.49,27.12,13.29,16.29,17.48,18,15.81,12.89ZM397,345.4s-14.75-29.31-24.6-23.75c-10.24,5.78,5.1,18.84,12.73,25.09,16.26,13.32,20.72,14.2,18.05,9.49Zm-8.46,17.65s-13.15-24.45-21.35-19.52c-8.53,5.13,4.75,15.81,11.34,20.92C392.6,375.34,396.39,376,394,372.06Zm-8.17,13.28s-10.48-25.71-19.15-21.68c-9,4.19,3,16.23,9,22C383.1,389,386.8,390,384.87,385.87Zm44-64.4s19-33.74,5-39.09c-14.63-5.56-15.85,17.62-16.2,29-.75,24.22,2,29,4.82,23.26Z" style="fill:#e5e5e5;opacity:0.65"></path><path d="M423.56,285.9s-6.48,46.56-15,64.15c-9.8,20.21-23.79,40.57-37.37,54.62" style="fill:none;stroke:#ccc;stroke-linecap:round;stroke-linejoin:round;stroke-width:1.25197px"></path><line x1="413.24" y1="337.64" x2="441.52" y2="317.15" style="fill:none;stroke:#ccc;stroke-linecap:round;stroke-linejoin:round;stroke-width:1.25197px"></line><line x1="408.55" y1="350.05" x2="440.13" y2="341.29" style="fill:none;stroke:#ccc;stroke-linecap:round;stroke-linejoin:round;stroke-width:1.25197px"></line><line x1="410.23" y1="345.52" x2="393.62" y2="318.11" style="fill:none;stroke:#ccc;stroke-linecap:round;stroke-linejoin:round;stroke-width:1.25197px"></line><line x1="400.41" y1="365.61" x2="428.38" y2="364.89" style="fill:none;stroke:#ccc;stroke-linecap:round;stroke-linejoin:round;stroke-width:1.25197px"></line><line x1="403.74" y1="359.01" x2="387.81" y2="341.47" style="fill:none;stroke:#ccc;stroke-linecap:round;stroke-linejoin:round;stroke-width:1.25197px"></line><line x1="394.2" y1="374.04" x2="381.34" y2="361.18" style="fill:none;stroke:#ccc;stroke-linecap:round;stroke-linejoin:round;stroke-width:1.25197px"></line><line x1="388.67" y1="384.24" x2="404.81" y2="382.58" style="fill:none;stroke:#ccc;stroke-linecap:round;stroke-linejoin:round;stroke-width:1.25197px"></line><line x1="385.61" y1="388.04" x2="371.96" y2="371.7" style="fill:none;stroke:#ccc;stroke-linecap:round;stroke-linejoin:round;stroke-width:1.25197px"></line><path d="M124.67,110.4c-2.43,6-4.91,1.17-4.52-23.91.18-11.76,1-35.78,14-30.49,12.49,5.08-4,40.59-4,40.59ZM142.52,114s27.11-28.25,16.94-37.11c-10.58-9.22-19.16,13.23-23.16,24.29-8.51,23.59-7.73,29-3.49,24.08Zm5.72,25.34s24.81-17.66,18.32-25.91c-6.75-8.58-16.56,7.33-21.22,15.21-9.93,16.81-10.1,21-6.16,17.91ZM155,164.57s24.82-17.66,18.33-25.91c-6.75-8.58-16.57,7.34-21.22,15.21-9.93,16.81-10.11,21-6.16,17.91Zm-43.33-50.81S76.9,95.69,71.25,107.94c-5.88,12.74,18.08,14.67,29.81,15.39,25,1.55,30-.71,24.1-3.41Zm4.89,19.9S78.89,122.85,75.79,136c-3.23,13.66,20.63,10.79,32.28,9.17,24.84-3.47,29.21-6.66,22.93-8.14Zm8.61,21.69s-32.06-8.27-34.38,2.9c-2.42,11.63,17.7,8.64,27.51,7,20.93-3.5,24.55-6.31,19.2-7.41Zm5,17.91s-31-11.63-34.5-.77c-3.63,11.3,16.68,10.47,26.61,9.88,21.19-1.26,25.09-3.66,19.89-5.33ZM109.38,82.54s-14.16-44-30.22-36c-16.73,8.32,2.6,28.16,12.26,37.65,20.62,20.27,27,21.69,24.29,14.61Z" style="fill:#FBA4A4"></path><path d="M124.67,110.4c-2.43,6-4.91,1.17-4.52-23.91.18-11.76,1-35.78,14-30.49,12.49,5.08-4,40.59-4,40.59ZM142.52,114s27.11-28.25,16.94-37.11c-10.58-9.22-19.16,13.23-23.16,24.29-8.51,23.59-7.73,29-3.49,24.08Zm5.72,25.34s24.81-17.66,18.32-25.91c-6.75-8.58-16.56,7.33-21.22,15.21-9.93,16.81-10.1,21-6.16,17.91ZM155,164.57s24.82-17.66,18.33-25.91c-6.75-8.58-16.57,7.34-21.22,15.21-9.93,16.81-10.11,21-6.16,17.91Zm-43.33-50.81S76.9,95.69,71.25,107.94c-5.88,12.74,18.08,14.67,29.81,15.39,25,1.55,30-.71,24.1-3.41Zm4.89,19.9S78.89,122.85,75.79,136c-3.23,13.66,20.63,10.79,32.28,9.17,24.84-3.47,29.21-6.66,22.93-8.14Zm8.61,21.69s-32.06-8.27-34.38,2.9c-2.42,11.63,17.7,8.64,27.51,7,20.93-3.5,24.55-6.31,19.2-7.41Zm5,17.91s-31-11.63-34.5-.77c-3.63,11.3,16.68,10.47,26.61,9.88,21.19-1.26,25.09-3.66,19.89-5.33ZM109.38,82.54s-14.16-44-30.22-36c-16.73,8.32,2.6,28.16,12.26,37.65,20.62,20.27,27,21.69,24.29,14.61Z" style="fill:#e5e5e5;opacity:0.65"></path><path d="M85.88,62.22s35.55,43.37,44.06,65.08c9.77,25,16.27,53.68,17.59,77" style="fill:none;stroke:#ccc;stroke-linecap:round;stroke-linejoin:round;stroke-width:1.25197px"></path><line x1="122.86" y1="113.14" x2="127.8" y2="71.78" style="fill:none;stroke:#ccc;stroke-linecap:round;stroke-linejoin:round;stroke-width:1.25197px"></line><line x1="129.94" y1="127.3" x2="147.82" y2="92.54" style="fill:none;stroke:#ccc;stroke-linecap:round;stroke-linejoin:round;stroke-width:1.25197px"></line><line x1="127.32" y1="122.15" x2="89.87" y2="114.52" style="fill:none;stroke:#ccc;stroke-linecap:round;stroke-linejoin:round;stroke-width:1.25197px"></line><line x1="136.97" y1="147.03" x2="158.99" y2="121.94" style="fill:none;stroke:#ccc;stroke-linecap:round;stroke-linejoin:round;stroke-width:1.25197px"></line><line x1="133.89" y1="138.77" x2="105.62" y2="138.52" style="fill:none;stroke:#ccc;stroke-linecap:round;stroke-linejoin:round;stroke-width:1.25197px"></line><line x1="139.34" y1="159.29" x2="117.65" y2="160.15" style="fill:none;stroke:#ccc;stroke-linecap:round;stroke-linejoin:round;stroke-width:1.25197px"></line><line x1="143.79" y1="172.39" x2="155.41" y2="156.92" style="fill:none;stroke:#ccc;stroke-linecap:round;stroke-linejoin:round;stroke-width:1.25197px"></line><line x1="144.64" y1="178.15" x2="119.28" y2="176.89" style="fill:none;stroke:#ccc;stroke-linecap:round;stroke-linejoin:round;stroke-width:1.25197px"></line><path d="M246.15,150.25c-4.37,1.65-3-2,10.5-14.16,6.34-5.68,19.53-17,23.1-7.53,3.44,9.14-23.54,17.84-23.54,17.84ZM253,161.49s28.34.54,28.06-9.22c-.3-10.17-16.46-3.7-24.3-.38-16.74,7.06-19.2,10.12-14.53,10ZM242.36,177s21.6,4.52,22.79-3c1.25-7.81-12-5.2-18.52-3.81-13.82,3-16.15,5-12.55,5.53Zm-10.14,16s21.59,4.51,22.79-3c1.25-7.81-12-5.21-18.52-3.81-13.82,3-16.15,4.95-12.55,5.52ZM238,145s-7.46-27.35-16.75-24.34c-9.66,3.14,1.09,16.83,6.47,23.43,11.48,14.08,15.11,15.58,13.66,11.14Zm-8.18,12.38S217,132,208.52,136.82c-8.85,5,4.41,16.28,11,21.67,14.06,11.52,17.91,12.27,15.6,8.2Zm-7.31,15.24S211.1,151.46,204,155.72c-7.37,4.43,4.1,13.66,9.8,18.07,12.15,9.42,15.42,10,13.38,6.58Zm-7.06,11.48s-9.05-22.21-16.54-18.73c-7.8,3.62,2.62,14,7.82,19,11.08,10.65,14.28,11.54,12.61,8Zm38-55.64s16.45-29.15,4.3-33.77c-12.65-4.81-13.7,15.22-14,25-.64,20.93,1.74,25,4.16,20.1Z" style="fill:#FBA4A4"></path><path d="M246.15,150.25c-4.37,1.65-3-2,10.5-14.16,6.34-5.68,19.53-17,23.1-7.53,3.44,9.14-23.54,17.84-23.54,17.84ZM253,161.49s28.34.54,28.06-9.22c-.3-10.17-16.46-3.7-24.3-.38-16.74,7.06-19.2,10.12-14.53,10ZM242.36,177s21.6,4.52,22.79-3c1.25-7.81-12-5.2-18.52-3.81-13.82,3-16.15,5-12.55,5.53Zm-10.14,16s21.59,4.51,22.79-3c1.25-7.81-12-5.21-18.52-3.81-13.82,3-16.15,4.95-12.55,5.52ZM238,145s-7.46-27.35-16.75-24.34c-9.66,3.14,1.09,16.83,6.47,23.43,11.48,14.08,15.11,15.58,13.66,11.14Zm-8.18,12.38S217,132,208.52,136.82c-8.85,5,4.41,16.28,11,21.67,14.06,11.52,17.91,12.27,15.6,8.2Zm-7.31,15.24S211.1,151.46,204,155.72c-7.37,4.43,4.1,13.66,9.8,18.07,12.15,9.42,15.42,10,13.38,6.58Zm-7.06,11.48s-9.05-22.21-16.54-18.73c-7.8,3.62,2.62,14,7.82,19,11.08,10.65,14.28,11.54,12.61,8Zm38-55.64s16.45-29.15,4.3-33.77c-12.65-4.81-13.7,15.22-14,25-.64,20.93,1.74,25,4.16,20.1Z" style="fill:#fff;opacity:0.65"></path><path d="M252.71,105.93s-5.59,40.23-13,55.43c-8.47,17.46-20.56,35-32.29,47.18" style="fill:none;stroke:#ccc;stroke-linecap:round;stroke-linejoin:round;stroke-width:1.25197px"></path><line x1="243.8" y1="150.63" x2="268.24" y2="132.93" style="fill:none;stroke:#ccc;stroke-linecap:round;stroke-linejoin:round;stroke-width:1.25197px"></line><line x1="239.75" y1="161.36" x2="267.03" y2="153.78" style="fill:none;stroke:#ccc;stroke-linecap:round;stroke-linejoin:round;stroke-width:1.25197px"></line><line x1="241.21" y1="157.44" x2="226.85" y2="133.76" style="fill:none;stroke:#ccc;stroke-linecap:round;stroke-linejoin:round;stroke-width:1.25197px"></line><line x1="232.71" y1="174.8" x2="256.88" y2="174.18" style="fill:none;stroke:#ccc;stroke-linecap:round;stroke-linejoin:round;stroke-width:1.25197px"></line><line x1="235.6" y1="169.1" x2="221.83" y2="153.94" style="fill:none;stroke:#ccc;stroke-linecap:round;stroke-linejoin:round;stroke-width:1.25197px"></line><line x1="227.35" y1="182.09" x2="216.24" y2="170.97" style="fill:none;stroke:#ccc;stroke-linecap:round;stroke-linejoin:round;stroke-width:1.25197px"></line><line x1="222.58" y1="190.89" x2="236.52" y2="189.46" style="fill:none;stroke:#ccc;stroke-linecap:round;stroke-linejoin:round;stroke-width:1.25197px"></line><line x1="219.93" y1="194.17" x2="208.14" y2="180.06" style="fill:none;stroke:#ccc;stroke-linecap:round;stroke-linejoin:round;stroke-width:1.25197px"></line></g><g id="freepik--character-2--inject-87"><path d="M263.54,296.89H100.75a4,4,0,0,0-4,4v78.16a4,4,0,0,0,4,4.05H246.94l20.65,23.76v-106A4,4,0,0,0,263.54,296.89Z" style="fill:#263238"></path><path d="M208,341.59a8.86,8.86,0,1,1,8.86,8.85A8.86,8.86,0,0,1,208,341.59Z" style="fill:#fff"></path><path d="M170.06,341.59a8.86,8.86,0,1,1,8.85,8.85A8.85,8.85,0,0,1,170.06,341.59Z" style="fill:#fff"></path><path d="M132.12,341.59a8.85,8.85,0,1,1,8.85,8.85A8.85,8.85,0,0,1,132.12,341.59Z" style="fill:#fff"></path><path d="M353.63,229.24s1.36-5.67-1.13-10-4.54-1.36-6.35-.46-5.21-2-6.57-.22.23,3.17-.45,4.3-5.44-.23-6.12,3,2.94,3.17,1.58,4.75-4.53,2-2.94,5,4.3,2.27,4.3,3.4-2.94,3.4-1.13,5.66,4.31.68,5,1.82,1.58,4.3,2.94,5,4.76-.23,7.93-5.89S353.63,229.24,353.63,229.24Z" style="fill:#263238;stroke:#263238;stroke-linecap:round;stroke-linejoin:round"></path><path d="M384.5,273.57c-.73,1.57-6.84,5.76-6.84,5.76a4.66,4.66,0,0,1,.43-2c.44-.67.75-1.32,1-1.72a4.18,4.18,0,0,0-1-3c-.83-.92-1.49,1.39-1.85,2.93s-2.77,3.88-2.66,5a39.33,39.33,0,0,0,.81,3.91L367.54,290c-2.15,1.79-8.31,5-8.31,5a37.72,37.72,0,0,0-2.73-6.84,144.36,144.36,0,0,0-7.93-13.47c-2.41,3.36-.51,8,.85,13.71s7.06,17.51,7.06,17.51a28.35,28.35,0,0,0,9.16-4.82c5.08-3.82,11.83-14.26,11.83-14.26s2-.89,4.47-1.74,2.11-1.57,2.51-4,2.47-5.74,2.35-7S385.23,272,384.5,273.57Z" style="fill:#fff;stroke:#263238;stroke-linecap:round;stroke-linejoin:round"></path><path d="M344.79,245.55s-1.34,8.37-2.47,12.67-2.52,4.07-2.52,4.07a18.46,18.46,0,0,0-9.28-2c-4.76.45-10.2,5.66-7.93,17.45s9.74,23.11,9.74,23.11l-3.85,14.27s-3.72,12-6.66,23.13-7.05,27.85-8.87,31.25-8.62,8-14.06,18.38-13,29.89-13,29.89l2,2.27s23.79-26.52,29.91-32.86,16.09-22.89,18.8-32.63a59.6,59.6,0,0,1,7.43-16.48s3.45,20.11,1.64,25.77-5,15.41-4.76,22.43S345.7,420,345.7,420l4.08.22s4.08-19.26,7.47-37.16,5.22-25.6,5.22-44-6.12-39.65-7.48-42.6-1.59-3.62-1.59-3.62,3.17-4.08,3.17-7.71-4.07-10-4.07-10,1.81-3.62.22-6.57a8.58,8.58,0,0,0-3.81-3.85l1.55-7.93Z" style="fill:#fff;stroke:#263238;stroke-linecap:round;stroke-linejoin:round"></path><path d="M330.54,307.48l-2.06,7.63s-3.72,12-6.66,23.13-7.05,27.85-8.87,31.25-8.62,8-14.06,18.38-13,29.89-13,29.89l2,2.27s23.79-26.52,29.91-32.86,16.09-22.89,18.8-32.63a59.6,59.6,0,0,1,7.43-16.48s3.45,20.11,1.64,25.77-5,15.41-4.76,22.43S345.7,420,345.7,420l4.08.22s4.08-19.26,7.47-37.16,5.22-25.6,5.22-44c0-12.07-2.65-25.41-4.85-34C343.32,308.24,335.16,308.29,330.54,307.48Z" style="fill:#263238;stroke:#263238;stroke-linecap:round;stroke-linejoin:round"></path><line x1="344.96" y1="338.06" x2="352.62" y2="328.35" style="fill:none;stroke:#fff;stroke-linecap:round;stroke-linejoin:round;stroke-width:0.75px"></line><path d="M352.5,227.88s-7,.45-8.16,10,.68,21.75,7,23.33,13.37-9.06,14.05-18.12S360.43,226.06,352.5,227.88Z" style="fill:#fff;stroke:#263238;stroke-linecap:round;stroke-linejoin:round"></path><path d="M361.45,250.36c0,.75-.33,1.36-.73,1.36s-.73-.61-.73-1.36.32-1.35.73-1.35S361.45,249.61,361.45,250.36Z" style="fill:#263238"></path><path d="M355.71,247.76c0,.74-.32,1.35-.72,1.35s-.73-.61-.73-1.35.32-1.36.73-1.36S355.71,247,355.71,247.76Z" style="fill:#263238"></path><path d="M364.44,235.51c-1.92-5.36-6.37-8.91-11.94-7.63,0,0-7,.45-8.16,10a45.85,45.85,0,0,0-.29,6.88l.06.14s-.92-2.67,8.14-3.12C355.24,241.6,362.74,235.05,364.44,235.51Z" style="fill:#263238;stroke:#263238;stroke-linecap:round;stroke-linejoin:round"></path><path d="M359.56,235.38s4-4.8,7.3-1.88-2.71,9.38-1.46,11.26,4.79-.42,4.79-.42-1.87,4-4.37,4-5.63-3.33-5.63-6.67a33.17,33.17,0,0,0-.63-6.25h0" style="fill:#263238;stroke:#263238;stroke-linecap:round;stroke-linejoin:round"></path><path d="M346.38,245.1s-2.95-6.57-4.31-3.18.91,7.26,2.95,7.26" style="fill:#fff;stroke:#263238;stroke-linecap:round;stroke-linejoin:round"></path><path d="M354,277.91a8.21,8.21,0,0,1-1.54-2.68,41,41,0,0,1-1.07-8.35l-.3-.31c-.51,3.63-2.11,10.21-6.79,7.53s-8.41-10.1-9.81-13.48a7.62,7.62,0,0,0-2.26-.3c1.61,2.77,4.88,9.08,4.36,13.55-.58,5-4.78,14.48-12.6,9.45a80,80,0,0,0,8.3,17.52l-3.51,13c11.3,5.43,25,2.73,31,1.08-1.83-9.39-4.07-16.76-4.83-18.41-1.36-2.94-1.59-3.62-1.59-3.62s3.17-4.08,3.17-7.71C356.57,283.1,355.2,280.08,354,277.91Z" style="fill:#FBA4A4;stroke:#263238;stroke-linecap:round;stroke-linejoin:round"></path><path d="M348.79,283.09c.31-.76.62-1.53.9-2.31" style="fill:none;stroke:#263238;stroke-linecap:round;stroke-linejoin:round;stroke-width:0.75px"></path><path d="M336.5,303.9a99.9,99.9,0,0,0,11.29-18.52" style="fill:none;stroke:#263238;stroke-linecap:round;stroke-linejoin:round;stroke-width:0.75px"></path><path d="M338.32,304.24s3-2.79,7.88-7.19" style="fill:none;stroke:#263238;stroke-linecap:round;stroke-linejoin:round;stroke-width:0.75px"></path><line x1="342.72" y1="303.08" x2="351.76" y2="296.82" style="fill:none;stroke:#263238;stroke-linecap:round;stroke-linejoin:round;stroke-width:0.75px"></line><path d="M332.78,261.86s-2.72-2.49-8.61,1.59-23.34,16.09-24,18.58,26.06,27.19,28.1,28.55,5-.45,5-.45,8.22,1,8.68.09-3.15-5.19-5.42-6.32-7.7,2-7.7,2-11-12.35-13.24-16.66a41.52,41.52,0,0,0-3.17-5.44l18.13-10.42" style="fill:#fff;stroke:#263238;stroke-linecap:round;stroke-linejoin:round"></path><polyline points="332.42 308 335 307.75 339.75 310" style="fill:none;stroke:#263238;stroke-linecap:round;stroke-linejoin:round;stroke-width:0.75px"></polyline><path d="M332.5,306.25s2.5-.75,3.75,0,4.5,2.5,4.5,2.5" style="fill:none;stroke:#263238;stroke-linecap:round;stroke-linejoin:round;stroke-width:0.75px"></path><path d="M333.16,304.8s2.67-.43,3.74,0a15.5,15.5,0,0,1,3,2.13" style="fill:none;stroke:#263238;stroke-linecap:round;stroke-linejoin:round;stroke-width:0.75px"></path><line x1="327.57" y1="275.23" x2="333.01" y2="275.23" style="fill:none;stroke:#263238;stroke-linecap:round;stroke-linejoin:round"></line><path d="M382,267.78l-5.5,12.94a1.54,1.54,0,0,0,.11,1.43l.92,1.48a1.55,1.55,0,0,0,2.72-.15l6.15-12.9a1.56,1.56,0,0,0-.32-1.79l-1.57-1.51A1.55,1.55,0,0,0,382,267.78Z" style="fill:#263238"></path><path d="M374.79,286.23a7.07,7.07,0,0,1,2.58-3.24,17.68,17.68,0,0,1,4.25-1.4s1.51-5.27,2.21-4.46.42,4.87.42,4.87" style="fill:#fff;stroke:#263238;stroke-linecap:round;stroke-linejoin:round"></path><path d="M386.54,275.38a1.39,1.39,0,0,0-1.88-.08c-.92.84-2.33,3.22-3.83,4.49" style="fill:none;stroke:#263238;stroke-linecap:round;stroke-linejoin:round"></path><path d="M285.88,417.76s-8.22,4.36-11.16,8.65-.54,6.69,5.09,4.82,8.11-11.2,8.11-11.2Z" style="fill:#fff;stroke:#263238;stroke-linecap:round;stroke-linejoin:round"></path><path d="M345.7,420s.5,6.38,2.91,8.79,10.44,5.89,11,2.94-8.83-9.9-8.83-9.9l-1-1.61-3-.27Z" style="fill:#fff;stroke:#263238;stroke-linecap:round;stroke-linejoin:round"></path><path d="M360.58,247.08a3.8,3.8,0,0,0-2.28,2.62,10,10,0,0,0-.46,3.87l-3.18-.45" style="fill:none;stroke:#263238;stroke-linecap:round;stroke-linejoin:round"></path><path d="M351.24,253.92a3.61,3.61,0,0,0,3,2.39" style="fill:none;stroke:#263238;stroke-linecap:round;stroke-linejoin:round"></path><path d="M353.52,244.35s2.62-1.82,4.89-.11" style="fill:none;stroke:#263238;stroke-linecap:round;stroke-linejoin:round"></path><path d="M360.58,247.08s3.3-1.36,3.3,1.14" style="fill:none;stroke:#263238;stroke-linecap:round;stroke-linejoin:round"></path></g><g id="freepik--character-1--inject-87"><path d="M263.54,173.86H100.75a4,4,0,0,0-4,4v106l20.65-23.76H263.54a4,4,0,0,0,4-4.05V177.91A4,4,0,0,0,263.54,173.86Z" style="fill:#FBA4A4;stroke:#263238;stroke-miterlimit:10"></path><path d="M156.29,218.56a8.86,8.86,0,1,0-8.85,8.86A8.85,8.85,0,0,0,156.29,218.56Z" style="fill:#fff;stroke:#263238;stroke-miterlimit:10"></path><path d="M194.23,218.56a8.85,8.85,0,1,0-8.85,8.86A8.85,8.85,0,0,0,194.23,218.56Z" style="fill:#fff;stroke:#263238;stroke-miterlimit:10"></path><path d="M232.18,218.56a8.86,8.86,0,1,0-8.86,8.86A8.86,8.86,0,0,0,232.18,218.56Z" style="fill:#fff;stroke:#263238;stroke-miterlimit:10"></path><path d="M144.58,130.88l-4.71,10.9a2.4,2.4,0,0,0,1.17,3.38l2.88,1.26c2.68.36,5.25-2,5.91-2.86l5.84-7.13Z" style="fill:#fff;stroke:#263238;stroke-linecap:round;stroke-linejoin:round"></path><polygon points="178.11 99.1 157.92 107.2 157.92 166.29 201.54 166.29 201.54 108.27 182.49 98.67 178.11 99.1" style="fill:#FBA4A4;stroke:#263238;stroke-linecap:round;stroke-linejoin:round"></polygon><path d="M191.92,105.82c-1.24-1.42-1.24-7.12-1.24-7.12l-5.17-1.6-4.36.48-4.36-.48-5.16,1.6s0,5.7-1.25,7.12-4.09,4.27-4.09,4.27.71.89,3-1.6a14.48,14.48,0,0,1,4.45-3.38,4.81,4.81,0,0,0,.89,2.85,66.81,66.81,0,0,0,6.33,4v.19l.16-.1.17.1V112a65.56,65.56,0,0,0,6.33-4,4.81,4.81,0,0,0,.89-2.85,14.35,14.35,0,0,1,4.45,3.38c2.32,2.49,3,1.6,3,1.6S193.17,107.25,191.92,105.82Z" style="fill:#fff;stroke:#263238;stroke-linecap:round;stroke-linejoin:round"></path><polygon points="175.86 95.2 175.86 102.03 181.32 112.17 186.39 102.42 186.39 95.4 175.86 95.2" style="fill:#fff;stroke:#263238;stroke-linecap:round;stroke-linejoin:round"></polygon><path d="M171.18,83.89S170,79,168.84,81.36s2.34,7.21,2.34,7.21Z" style="fill:#fff;stroke:#263238;stroke-linecap:round;stroke-linejoin:round"></path><path d="M191.07,83.7s2.73-3.32,3.12-1.17-2.73,6-2.73,6Z" style="fill:#fff;stroke:#263238;stroke-linecap:round;stroke-linejoin:round"></path><path d="M181.32,98.71h0a10.14,10.14,0,0,1-10.14-10.14V68.29h20.28V88.57A10.14,10.14,0,0,1,181.32,98.71Z" style="fill:#fff;stroke:#263238;stroke-linecap:round;stroke-linejoin:round"></path><path d="M174.85,84.28s1.54,1.85,4.21,0" style="fill:#fff;stroke:#263238;stroke-linecap:round;stroke-linejoin:round"></path><path d="M183.28,84.28s1.54,1.85,4.22,0" style="fill:#fff;stroke:#263238;stroke-linecap:round;stroke-linejoin:round"></path><path d="M174.59,81.22s1.54-2.83,4.88-.69" style="fill:none;stroke:#263238;stroke-linecap:round;stroke-linejoin:round"></path><path d="M182.47,80.62s.51-1.2,2.83-1.2A2.64,2.64,0,0,1,188,81.3" style="fill:none;stroke:#263238;stroke-linecap:round;stroke-linejoin:round"></path><polyline points="179.47 89.78 181.1 90.72 182.55 89.87" style="fill:none;stroke:#263238;stroke-linecap:round;stroke-linejoin:round"></polyline><path d="M177.24,91.15a3.19,3.19,0,0,0,2,1.12" style="fill:none;stroke:#263238;stroke-linecap:round;stroke-linejoin:round"></path><path d="M190.68,75.12l.39,8.58s.19,1.17.58-1.17S194,73.75,193.6,71.8s-3.12-2-4.29-1.36S190.68,75.12,190.68,75.12Z" style="fill:#263238;stroke:#263238;stroke-linecap:round;stroke-linejoin:round"></path><path d="M171.18,81.36s-1.17-9-1.76-13.65,5.66-5.07,5.66-5.07,4.29-3.52,12.48-4.49,12.09,2,11.89,4.1-4.87,3.7-4.87,3.7,5.65.59,2.34,3.71-6.44,2.92-6.44,2.92,2.93,1.37,1.17,2.34-14.23-2.73-14.23-2.73.39,2.34-1.37,2.93-2.34.39-2.53,1.36-.2,6.83-1.17,7.41S171.18,81.36,171.18,81.36Z" style="fill:#263238;stroke:#263238;stroke-linecap:round;stroke-linejoin:round"></path><polygon points="157.81 107.45 142.15 133.05 156.23 138.81 157.81 130.7 157.81 107.45" style="fill:#fff;stroke:#263238;stroke-linecap:round;stroke-linejoin:round"></polygon><path d="M217.66,131.73l4.23,7.61a2.4,2.4,0,0,1-1.17,3.38l-6,2.51a2.4,2.4,0,0,1-2.85-.79l-5.29-7.16Z" style="fill:#fff;stroke:#263238;stroke-linecap:round;stroke-linejoin:round"></path><polygon points="201.54 108.27 219.36 132.16 205.5 138.56 201.54 131.78 201.54 108.27" style="fill:#fff;stroke:#263238;stroke-linecap:round;stroke-linejoin:round"></polygon><path d="M139.49,141.87c.55-1.74,1.25-3,7.4-5.65s15.24-5.38,17.84-8.12l0,0c.44-.89,8.41-9.12,8.41-9.12s2.83-.48,3.35-.65a12.69,12.69,0,0,1,3.93.33c.73.26.8.67.5.85a18.32,18.32,0,0,1-2.44.45l-.25.13A15.93,15.93,0,0,1,181,123c.09.28.31.31-.25.5s-2.34-1.08-2.34-1.08l-1.64,0,2.08,1.27s2,1.93,1.31,2.36-.9.41-1,0-1.47-1.28-1.47-1.28l-2.8-.3a26.33,26.33,0,0,1,2.56,1.73,11.8,11.8,0,0,1,1.09,1.4s-.25.81-1.15.28-2.37-1.48-2.37-1.48l-1.21-.22a49.06,49.06,0,0,1-4,4,6.22,6.22,0,0,1-2.06.72l0,.08a59.69,59.69,0,0,1-11.2,10.81c-6.36,4.52-11,6.4-13.13,6S138.93,143.61,139.49,141.87Z" style="fill:#fff;stroke:#263238;stroke-linecap:round;stroke-linejoin:round"></path><line x1="176.79" y1="122.4" x2="173.33" y2="121.8" style="fill:none;stroke:#263238;stroke-linecap:round;stroke-linejoin:round;stroke-width:0.75px"></line><line x1="174.89" y1="124.49" x2="172.65" y2="124.2" style="fill:none;stroke:#263238;stroke-linecap:round;stroke-linejoin:round;stroke-width:0.75px"></line><line x1="178.26" y1="120.07" x2="174.43" y2="119.98" style="fill:none;stroke:#263238;stroke-linecap:round;stroke-linejoin:round;stroke-width:0.75px"></line><path d="M155.31,162h48.89a0,0,0,0,1,0,0v.42a17.5,17.5,0,0,1-17.5,17.5H172.81a17.5,17.5,0,0,1-17.5-17.5V162A0,0,0,0,1,155.31,162Z" style="fill:#263238;stroke:#263238;stroke-linecap:round;stroke-linejoin:round"></path><path d="M189.58,222.74s2.28,7.11,5.12,9.95,7.68,3.42,7.4-1.7-6.83-11.09-6.83-11.09S189.58,220.18,189.58,222.74Z" style="fill:#fff;stroke:#263238;stroke-linecap:round;stroke-linejoin:round"></path><path d="M195.27,219.9s-16.49-32.14-21.05-41.53-9.38-19.34-13.93-21-11.66,3.12-10.52,11.37,11.94,22.47,17.06,29,22.75,25,22.75,25S193,223.88,195.27,219.9Z" style="fill:#263238;stroke:#263238;stroke-linecap:round;stroke-linejoin:round"></path><path d="M166.81,222.74s-2.28,7.11-5.12,9.95-7.68,3.42-7.4-1.7,6.83-11.09,6.83-11.09S166.81,220.18,166.81,222.74Z" style="fill:#fff;stroke:#263238;stroke-linecap:round;stroke-linejoin:round"></path><path d="M161.12,219.9s16.49-32.14,21-41.53,9.39-19.34,13.94-21,11.66,3.12,10.52,11.37-11.94,22.47-17.06,29-22.75,25-22.75,25S163.39,223.88,161.12,219.9Z" style="fill:#263238;stroke:#263238;stroke-linecap:round;stroke-linejoin:round"></path><path d="M206.36,170c-.53-.85-1.66-1.42-3.67-1.82-2.59-.52-8.69-.41-15.41,0-1.73,3.17-3.44,6.7-5.12,10.15-4.55,9.39-21,41.53-21,41.53,2.27,4,5.69,2.84,5.69,2.84s17.63-18.49,22.75-25C194.42,191.5,204.4,178.37,206.36,170Z" style="fill:none;stroke:#263238;stroke-linecap:round;stroke-linejoin:round"></path><path d="M176.8,121.07h7.42a2.16,2.16,0,0,1,2.16,2.16v17.27a1.91,1.91,0,0,1-1.91,1.91h-7.92a1.91,1.91,0,0,1-1.91-1.91V123.22A2.16,2.16,0,0,1,176.8,121.07Z" style="fill:#263238"></path><path d="M223.34,141.12c-1.08-1.47-2.13-2.4-8.81-3s-16.16-.25-19.5-2h0c-.7-.7-10.87-6-10.87-6s-2.85.45-3.39.45a12.63,12.63,0,0,0-3.62,1.57c-.61.47-.54.88-.2.95a17.42,17.42,0,0,0,2.45-.34l.28,0a15.8,15.8,0,0,0-1.7,3.61c0,.3-.19.4.4.4s1.87-1.77,1.87-1.77l1.57-.5-1.57,1.87s-1.28,2.46-.5,2.66,1,.09,1-.3a6.26,6.26,0,0,1,1-1.67l2.56-1.18a24.63,24.63,0,0,0-1.87,2.46,11.2,11.2,0,0,0-.59,1.67s.49.69,1.18-.1,1.77-2.16,1.77-2.16l1.08-.59a47.42,47.42,0,0,0,5.11,2.55,6,6,0,0,0,2.18,0l0,.07a60.07,60.07,0,0,0,14.06,6.68c7.47,2.26,12.49,2.56,14.35,1.48S224.43,142.6,223.34,141.12Z" style="fill:#fff;stroke:#263238;stroke-linecap:round;stroke-linejoin:round"></path><line x1="181.79" y1="134.54" x2="184.88" y2="132.88" style="fill:none;stroke:#263238;stroke-linecap:round;stroke-linejoin:round;stroke-width:0.75px"></line><line x1="184.25" y1="135.92" x2="186.28" y2="134.93" style="fill:none;stroke:#263238;stroke-linecap:round;stroke-linejoin:round;stroke-width:0.75px"></line><line x1="179.65" y1="132.8" x2="183.25" y2="131.5" style="fill:none;stroke:#263238;stroke-linecap:round;stroke-linejoin:round;stroke-width:0.75px"></line><path d="M173,175.9l-10.28,1,12.67,18.53-3,8.8c2.67,3,5.75,6.34,8.56,9.36l2.84-2s4.12,5.78,8.27,11a5.62,5.62,0,0,0,3.15-2.77s-16.49-32.14-21.05-41.53C173.83,177.55,173.42,176.72,173,175.9Z" style="fill:none;stroke:#263238;stroke-linecap:round;stroke-linejoin:round"></path><path d="M210,173.86h-48.7l15.32,24.47s-17,26.06-17,29.18.57,12.47,5.1,10.48,1.14-12.75,2.27-15,14-11.61,14-11.61,8.66,4.52,11.11,9,3.21,11.63,5.48,16.17,7.93,5.95,7.93,1.41-17.85-37.68-17.85-37.68,4-4.53,12.75-13.88A72.63,72.63,0,0,0,210,173.86Z" style="fill:#263238;opacity:0.2"></path></g></svg>